# xmcd
# 
# Track frame offsets:
#     150
#     13222
#     31717
#     49712
#     63907
#     76050
#     98647
#     118225
#     132187
#     148067
#     159647
#     188487
#     200537
# 
# Disc length: 2859
# 
# Revision: 5
# Processed by: cddbd v1.5.2PL0 Copyright (c) Steve Scherf et al.
# Submitted via: fre:ac v1.0.17
# 
DISCID=a70b290d
DTITLE=Various Artist - New Country - August 1995
DYEAR=1995
DGENRE=Country
TTITLE0=Dale Watson - South Of Round Rock, Texas
TTITLE1=The Burns Sisters - Runaway Train
TTITLE2=Jack Ingram - Lonesome Question
TTITLE3=Stephen Bruton - Bluebonnet Blue
TTITLE4=Lee Roy Parnell - A Little Bit Of You
TTITLE5=Vigilantes Of Love - Certain Slant Of Light
TTITLE6=Kate Campbell - Mississippi And Me
TTITLE7=Shane Sutton - I've Got Your Number
TTITLE8=Victoria Shaw - Forgiveness
TTITLE9=Billy Bacon and The Forbidden Pigs - Battle With The Bottle
TTITLE10=Clive Gregson - Camden Town
TTITLE11=Tammy Rogers and Don Heffington - Whiplash
TTITLE12=Jeff Foxworthy - Party All Night
EXTD=
EXTT0=
EXTT1=
EXTT2=
EXTT3=
EXTT4=
EXTT5=
EXTT6=
EXTT7=
EXTT8=
EXTT9=
EXTT10=
EXTT11=
EXTT12=
PLAYORDER=
